<?xml version="1.0" encoding="UTF-8"?>
<svg id="_圖層_1" data-name="圖層 1" xmlns="http://www.w3.org/2000/svg" viewBox="0 0 46.79 26.19">
  <defs>
    <style>
      .cls-1 {
        fill: #333;
      }
    </style>
  </defs>
  <g>
    <path class="cls-1" d="m17.46,18.31c1.45,1.65,3.57,2.69,5.93,2.69,4.37,0,7.91-3.54,7.91-7.91,0-.71-.1-1.4-.27-2.05l-13.57,7.27Z"/>
    <path class="cls-1" d="m30.55,9.77c-.08-.17-.15-.34-.24-.5-.33.69-1.03,1.17-1.84,1.17-1.13,0-2.05-.92-2.05-2.05,0-.87.54-1.61,1.31-1.91-1.25-.82-2.74-1.3-4.34-1.3-4.37,0-7.91,3.54-7.91,7.91,0,1.51.43,2.92,1.17,4.12l13.9-7.44Z"/>
  </g>
  <g>
    <path class="cls-1" d="m39.72,6.39l-6.81,3.65c.31.96.48,1.99.48,3.06,0,5.52-4.48,10-10,10-3.17,0-5.98-1.48-7.81-3.77l-5.19,2.78c3.72,2.28,8.19,4.09,13,4.09,12.92,0,23.39-13.1,23.39-13.1,0,0-2.71-3.38-7.06-6.7Z"/>
    <path class="cls-1" d="m9.1,21.26l5.72-3.06c-.89-1.5-1.41-3.24-1.41-5.11,0-5.52,4.48-10,10-10,3.97,0,7.4,2.33,9.01,5.68l6.12-3.28C34.44,2.61,29.16,0,23.39,0,10.47,0,0,13.1,0,13.1c0,0,3.57,4.45,9.1,8.17Z"/>
  </g>
  <polygon class="cls-1" points="43.79 2.68 44.49 2.31 43.34 .37 2.31 22.35 3 23.51 3.46 24.28 43.79 2.68"/>
</svg>